HIERARCHY
ROOT Hips
{
 OFFSET 0.000000 0.000000 0.000000
 CHANNELS 6 Xposition Yposition Zposition Yrotation Xrotation Zrotation
 JOINT Chest
 {
  OFFSET 0.000000 9.581000 -0.001100
  CHANNELS 3 Yrotation Xrotation Zrotation
  JOINT Chest2
  {
   OFFSET 0.000000 9.561100 0.002200
   CHANNELS 3 Yrotation Xrotation Zrotation
   JOINT Chest3
   {
    OFFSET 0.000000 9.521100 0.000000
    CHANNELS 3 Yrotation Xrotation Zrotation
    JOINT Chest4
    {
     OFFSET 0.000000 9.511400 0.000000
     CHANNELS 3 Yrotation Xrotation Zrotation
     JOINT Neck
     {
      OFFSET 0.000000 14.375100 0.000000
      CHANNELS 3 Yrotation Xrotation Zrotation
      JOINT Head
      {
       OFFSET 0.000000 8.901200 0.004600
       CHANNELS 3 Yrotation Xrotation Zrotation
       End Site
       {
        OFFSET 0.000000 16.962200 0.002400
       }
      }
     }
     JOINT RightCollar
     {
      OFFSET -2.920100 9.518800 0.000000
      CHANNELS 3 Yrotation Xrotation Zrotation
      JOINT RightShoulder
      {
       OFFSET -13.664500 0.000000 0.000000
       CHANNELS 3 Yrotation Xrotation Zrotation
       JOINT RightElbow
       {
        OFFSET 0.000000 -29.999200 0.000000
        CHANNELS 3 Yrotation Xrotation Zrotation
        JOINT RightWrist
        {
         OFFSET 0.000000 -24.253600 0.000000
         CHANNELS 3 Yrotation Xrotation Zrotation
         End Site
         {
          OFFSET 0.000000 -17.918900 0.000000
         }
        }
       }
      }
     }
     JOINT LeftCollar
     {
      OFFSET 2.920100 9.518800 0.000000
      CHANNELS 3 Yrotation Xrotation Zrotation
      JOINT LeftShoulder
      {
       OFFSET 13.664500 0.000000 0.000000
       CHANNELS 3 Yrotation Xrotation Zrotation
       JOINT LeftElbow
       {
        OFFSET 0.000000 -29.999200 0.000000
        CHANNELS 3 Yrotation Xrotation Zrotation
        JOINT LeftWrist
        {
         OFFSET 0.000000 -24.253600 0.000000
         CHANNELS 3 Yrotation Xrotation Zrotation
         End Site
         {
          OFFSET 0.000000 -17.918900 0.000000
         }
        }
       }
      }
     }
    }
   }
  }
 }
 JOINT RightHip
 {
  OFFSET -7.797300 0.005300 0.000500
  CHANNELS 3 Yrotation Xrotation Zrotation
  JOINT RightKnee
  {
   OFFSET 0.000000 -40.663400 -0.000500
   CHANNELS 3 Yrotation Xrotation Zrotation
   JOINT RightAnkle
   {
    OFFSET 0.000000 -39.523700 -0.000900
    CHANNELS 3 Yrotation Xrotation Zrotation
    JOINT RightToe
    {
     OFFSET 0.000000 -6.418000 14.485300
     CHANNELS 3 Yrotation Xrotation Zrotation
     End Site
     {
      OFFSET 0.000000 -1.465200 6.326400
     }
    }
   }
  }
 }
 JOINT LeftHip
 {
  OFFSET 7.797300 0.005300 0.000500
  CHANNELS 3 Yrotation Xrotation Zrotation
  JOINT LeftKnee
  {
   OFFSET 0.000000 -40.663400 -0.000500
   CHANNELS 3 Yrotation Xrotation Zrotation
   JOINT LeftAnkle
   {
    OFFSET 0.000000 -39.523700 -0.000900
    CHANNELS 3 Yrotation Xrotation Zrotation
    JOINT LeftToe
    {
     OFFSET 0.000000 -6.418000 14.485300
     CHANNELS 3 Yrotation Xrotation Zrotation
     End Site
     {
      OFFSET 0.000000 -1.465200 6.326400
     }
    }
   }
  }
 }
}
MOTION
Frames: 8
Frame Time: 0.008333
-13.802567 126.911466 27.077496 -166.164672 -49.995697 -3.069753 -2.893015 25.884732 -0.873949 -0.436538 4.265099 -0.051698 -0.700986 6.801755 -0.094247 -2.313006 21.296183 -0.606488 5.159962 18.794854 2.631140 4.959091 -5.687940 1.698820 3.249056 4.124087 3.315794 -11.499338 -17.173637 -7.799558 -96.953719 -45.782379 140.401842 -13.365196 -3.819866 0.489721 -8.461638 0.072207 -0.737311 -4.348294 -5.921024 10.452542 71.755733 -56.407841 -114.927624 -1.385927 -20.229712 29.967447 -6.182009 -22.672271 -7.145254 -5.008827 78.146014 -4.622319 6.902195 -13.652562 3.087065 0.000415 -0.003210 0.000184 5.783115 6.377719 1.283138 128.297209 65.282655 148.102828 6.480955 12.595043 -0.333424 -0.000886 0.003736 -0.000392
-13.802191 126.910999 27.077209 -166.172637 -49.983639 -3.063439 -2.893434 25.885624 -0.870477 -0.436533 4.266788 -0.051039 -0.700997 6.804388 -0.093134 -2.311921 21.299560 -0.602727 5.136182 18.755048 2.591026 4.940795 -5.732844 1.657092 3.233565 4.114502 3.310365 -11.482432 -16.963724 -7.806950 -97.086750 -45.825193 140.608834 -13.297858 -3.779963 0.480800 -8.462599 0.058146 -0.742339 -4.280174 -5.895135 10.441242 71.774413 -56.422020 -114.979157 -1.412437 -20.252148 30.022427 -6.183412 -22.686584 -7.146553 -5.010127 78.165928 -4.618333 6.906364 -13.779239 3.059756 -0.000853 -0.003134 -0.000378 5.781519 6.369081 1.280648 128.298478 65.280901 148.100487 6.458762 12.570213 -0.291621 -0.000448 -0.001333 -0.000198
-13.800753 126.909967 27.077300 -166.190213 -49.968474 -3.056177 -2.886657 25.882152 -0.860803 -0.435472 4.269608 -0.050452 -0.702567 6.807531 -0.091818 -2.311796 21.304144 -0.599107 5.113832 18.713736 2.551147 4.900299 -5.828841 1.574383 3.227016 4.107611 3.307184 -11.476847 -16.818116 -7.823682 -97.137994 -45.866758 140.729339 -13.223074 -3.734459 0.464361 -8.466009 0.064144 -0.736590 -4.225545 -5.894309 10.426330 71.821026 -56.428339 -115.001390 -1.420213 -20.266867 30.037559 -6.180370 -22.704178 -7.140945 -5.008997 78.184986 -4.611752 6.922956 -13.901562 3.028906 -0.001434 -0.003277 -0.000636 5.783498 6.357644 1.282569 128.301901 65.278485 148.109071 6.429718 12.548923 -0.276253 0.005339 -0.004606 0.002366
-13.800714 126.910855 27.076035 -166.198820 -49.969282 -3.050319 -2.888630 25.893547 -0.857553 -0.430291 4.262359 -0.054958 -0.708385 6.821743 -0.085130 -2.313141 21.309383 -0.595710 5.093070 18.671520 2.511264 4.878111 -5.893916 1.521000 3.216663 4.123089 3.312877 -11.459973 -16.729249 -7.848818 -97.148332 -45.915510 140.800714 -13.143151 -3.684786 0.445374 -8.465100 0.072474 -0.732874 -4.178448 -5.895363 10.416003 71.878982 -56.428304 -114.976861 -1.390785 -20.264726 29.949694 -6.180489 -22.704410 -7.150134 -4.963762 78.216005 -4.550040 6.938374 -14.031184 2.981973 0.002769 -0.003281 0.001227 5.778460 6.367320 1.276119 128.289683 65.277577 148.092612 6.421806 12.541962 -0.282054 0.004259 -0.001593 0.001887
-13.800915 126.911434 27.075063 -166.202535 -49.968162 -3.047133 -2.890154 25.897593 -0.856100 -0.436704 4.270015 -0.052176 -0.704296 6.822102 -0.084792 -2.314694 21.319639 -0.588965 5.073597 18.629204 2.472557 4.864937 -5.942385 1.483479 3.208052 4.122492 3.305362 -11.446801 -16.627039 -7.865879 -97.150724 -45.972312 140.861932 -13.061678 -3.639223 0.424585 -8.467740 0.081701 -0.728390 -4.133352 -5.897005 10.406850 71.926019 -56.430932 -114.983587 -1.403886 -20.288151 29.974496 -6.184738 -22.706462 -7.152910 -4.962902 78.238043 -4.542079 6.945967 -14.145483 2.946594 0.002741 -0.003902 0.001214 5.773388 6.371570 1.267789 128.280519 65.273455 148.082363 6.413241 12.534498 -0.285129 0.004095 -0.000150 0.001814
-13.801243 126.911998 27.074072 -166.199847 -49.966922 -3.048878 -2.894294 25.902095 -0.853353 -0.439150 4.278347 -0.047421 -0.703770 6.828647 -0.083769 -2.316050 21.324938 -0.584078 5.054704 18.586360 2.436849 4.857230 -5.975336 1.460191 3.201053 4.109179 3.293348 -11.433632 -16.518236 -7.882286 -97.144251 -46.034217 140.910466 -12.978748 -3.596250 0.403554 -8.471462 0.084292 -0.728512 -4.102326 -5.901939 10.401760 71.965977 -56.436359 -114.988805 -1.419841 -20.307577 30.016907 -6.192689 -22.718404 -7.153997 -4.976129 78.267465 -4.551979 6.949898 -14.212655 2.925164 0.002650 -0.000338 0.001174 5.767774 6.375517 1.261033 128.268278 65.269894 148.070410 6.389035 12.513517 -0.244180 0.005213 -0.004851 0.002309
-13.801668 126.911926 27.073585 -166.204775 -49.960687 -3.044310 -2.896583 25.921292 -0.843836 -0.439988 4.283321 -0.045596 -0.703934 6.826111 -0.086702 -2.317143 21.325338 -0.581762 5.036573 18.543207 2.404792 4.860966 -5.977391 1.461332 3.193715 4.094262 3.282271 -11.413599 -16.412965 -7.902967 -97.129832 -46.094808 140.945929 -12.896502 -3.551068 0.386778 -8.482278 0.080268 -0.727582 -4.059880 -5.894950 10.398432 72.014026 -56.446435 -115.008534 -1.422293 -20.315884 30.033423 -6.196417 -22.721088 -7.156717 -4.978838 78.279297 -4.552213 6.967552 -14.324396 2.893244 0.002775 -0.002034 0.001230 5.769130 6.371990 1.256652 128.262560 65.268299 148.065373 6.378222 12.504323 -0.228123 0.007981 -0.007709 0.003536
-13.801519 126.911573 27.073202 -166.206438 -49.951357 -3.046254 -2.897231 25.933903 -0.835707 -0.440332 4.286868 -0.044360 -0.703440 6.812883 -0.089473 -2.316373 21.343276 -0.573890 5.019531 18.500969 2.376723 4.847689 -6.029227 1.428072 3.163333 4.103010 3.280053 -11.363412 -16.335253 -7.933096 -97.106010 -46.154315 140.968034 -12.820113 -3.508302 0.374070 -8.508715 0.095483 -0.709150 -3.995231 -5.901113 10.381381 72.063720 -56.456475 -115.069800 -1.438304 -20.322444 30.080944 -6.201791 -22.726364 -7.154396 -4.996236 78.288341 -4.568226 6.987693 -14.424259 2.864849 0.002523 -0.003379 0.001118 5.768893 6.364656 1.256975 128.261600 65.267778 148.063163 6.377188 12.501127 -0.228046 0.009626 -0.009585 0.004264
